<svg width="412" height="124" viewBox="0 0 412 124" fill="none" xmlns="http://www.w3.org/2000/svg">
<g clip-path="url(#clip0_253_2)">
<rect width="412" height="124" fill="white"/>
<path d="M65.2681 120C-21.5019 109.965 3.47093 10.0348 44.9512 8.78049V35.122L35.2159 40.1394V104.112C37.7557 108.711 49.6072 115.819 55.5329 114.146V30.5226L77.1195 41.8118V56.446L67.8076 61.8815V115.819C73.7335 116.655 85.9234 114.648 88.9711 111.638V52.2648L110.135 61.8815V91.5679C124.949 83.6237 124.949 35.122 102.939 22.9965L94.897 30.9408L95.3202 19.6516L85.5851 16.3066L95.3202 12.9617L96.59 0L102.939 10.453L115.214 8.78049L106.748 18.3972C141.033 42.6481 134.684 118.328 65.2681 120Z" fill="#FCA311" stroke="#FCA311"/>
<path d="M171.47 89.216C167.801 89.216 164.387 88.3627 161.23 86.656C158.073 84.9067 155.022 82.5173 152.078 79.488C151.993 79.4027 151.886 79.36 151.758 79.36C151.374 79.36 150.947 79.5947 150.478 80.064L149.646 79.168L158.542 70.784L159.374 71.68C159.118 71.8933 158.883 72.192 158.67 72.576C158.457 72.96 158.414 73.2373 158.542 73.408C162.51 78.4427 166.841 80.96 171.534 80.96C173.155 80.96 174.606 80.64 175.886 80C177.209 79.36 178.233 78.5493 178.958 77.568C179.683 76.544 180.046 75.4987 180.046 74.432C180.046 71.9147 177.849 69.8453 173.454 68.224L165.582 65.28C162.425 64.128 159.95 62.5493 158.158 60.544C156.409 58.5387 155.534 56.128 155.534 53.312C155.534 50.5387 156.174 48.128 157.454 46.08C158.777 43.9893 160.633 42.3893 163.022 41.28C165.411 40.1707 168.185 39.616 171.342 39.616C174.329 39.616 176.825 40.0853 178.83 41.024C180.878 41.92 183.054 43.3067 185.358 45.184C185.401 45.2267 185.486 45.248 185.614 45.248C185.827 45.248 186.062 45.184 186.318 45.056C186.617 44.8853 186.851 44.7147 187.022 44.544L187.854 45.376L179.918 53.184L179.086 52.288C179.299 52.0747 179.449 51.84 179.534 51.584C179.662 51.2853 179.641 51.072 179.47 50.944C176.697 48.7253 173.945 47.616 171.214 47.616C169.038 47.616 167.31 48.128 166.03 49.152C164.75 50.1333 164.11 51.392 164.11 52.928C164.11 54.2933 164.451 55.3387 165.134 56.064C165.859 56.7893 166.947 57.408 168.398 57.92L176.142 60.736C178.83 61.7173 181.07 62.7627 182.862 63.872C184.654 64.9387 186.083 66.368 187.15 68.16C188.217 69.9093 188.75 72.1067 188.75 74.752C188.75 77.312 188.067 79.7013 186.702 81.92C185.379 84.096 183.395 85.8667 180.75 87.232C178.147 88.5547 175.054 89.216 171.47 89.216ZM214.804 40C218.174 40 221.118 40.6187 223.636 41.856C226.153 43.0933 228.073 44.8213 229.396 47.04C230.761 49.216 231.444 51.712 231.444 54.528C231.444 57.6427 230.697 60.288 229.204 62.464C227.71 64.5973 225.748 66.2187 223.316 67.328C220.884 68.3947 218.281 68.928 215.508 68.928H204.372V86.08C204.372 86.2933 204.542 86.464 204.884 86.592C205.225 86.72 205.545 86.784 205.844 86.784V88H194.388V86.784C194.686 86.784 195.006 86.72 195.348 86.592C195.689 86.464 195.86 86.2933 195.86 86.08V41.92C195.86 41.7067 195.689 41.536 195.348 41.408C195.049 41.28 194.75 41.216 194.452 41.216V40H214.804ZM216.02 60.8C217.513 60.8 218.836 60.48 219.988 59.84C221.14 59.1573 222.014 58.304 222.612 57.28C223.209 56.256 223.507 55.1893 223.507 54.08C223.507 52.416 222.804 50.944 221.396 49.664C219.988 48.384 218.217 47.744 216.084 47.744H204.372V60.8H216.02ZM284.112 86.208C284.24 86.592 284.752 86.784 285.648 86.784V88H272.656V86.784C273.211 86.784 273.595 86.656 273.808 86.4C274.021 86.144 274.064 85.888 273.936 85.632L270.416 76.608H249.552L246.032 85.632L245.968 85.824C245.968 86.08 246.075 86.3147 246.288 86.528C246.544 86.6987 246.864 86.784 247.248 86.784V88H234.64V86.784C235.493 86.784 236.005 86.592 236.176 86.208L253.968 42.944C254.096 42.688 254.16 42.4533 254.16 42.24C254.16 41.856 253.989 41.6 253.648 41.472C253.307 41.3013 252.944 41.216 252.56 41.216V40H267.472V41.216C267.088 41.216 266.725 41.3013 266.384 41.472C266.043 41.6 265.872 41.856 265.872 42.24C265.872 42.4533 265.936 42.688 266.064 42.944L284.112 86.208ZM259.984 49.984L252.432 69.248H267.536L259.984 49.984ZM330.601 78.592V89.344H329.385C329.385 89.0453 329.321 88.7253 329.193 88.384C329.065 88.0853 328.894 87.936 328.681 87.936H290.025V85.76L316.009 47.232H291.945C291.731 47.232 291.561 47.3813 291.433 47.68C291.305 47.9787 291.241 48.256 291.241 48.512H290.025V38.656H291.241C291.241 38.912 291.305 39.1893 291.433 39.488C291.561 39.7867 291.731 39.936 291.945 39.936H329.513V42.048L303.913 80H328.681C328.894 80 329.065 79.8507 329.193 79.552C329.321 79.2107 329.385 78.8907 329.385 78.592H330.601ZM339.049 41.92C339.049 41.7067 338.878 41.536 338.536 41.408C338.195 41.28 337.854 41.216 337.513 41.216V40H349.289V41.216C348.947 41.216 348.606 41.28 348.265 41.408C347.923 41.536 347.753 41.7067 347.753 41.92V86.08C347.753 86.2933 347.923 86.464 348.265 86.592C348.606 86.72 348.947 86.784 349.289 86.784V88H337.513V86.784C337.854 86.784 338.195 86.72 338.536 86.592C338.878 86.464 339.049 86.2933 339.049 86.08V41.92ZM380.02 89.024C375.071 89.024 370.633 87.8933 366.708 85.632C362.825 83.328 359.796 80.2987 357.62 76.544C355.487 72.7467 354.42 68.736 354.42 64.512C354.42 60.2453 355.444 56.1493 357.492 52.224C359.54 48.256 362.505 45.0347 366.388 42.56C370.271 40.0853 374.815 38.848 380.02 38.848C385.097 38.848 389.556 40.0213 393.396 42.368C397.236 44.7147 400.18 47.8507 402.228 51.776C404.276 55.6587 405.3 59.904 405.3 64.512C405.3 68.608 404.276 72.5547 402.228 76.352C400.223 80.1067 397.3 83.1573 393.46 85.504C389.62 87.8507 385.14 89.024 380.02 89.024ZM380.084 80.576C383.284 80.576 386.143 79.9147 388.66 78.592C391.22 77.2267 393.204 75.328 394.612 72.896C396.063 70.4213 396.788 67.6267 396.788 64.512C396.788 61.2267 396.105 58.2827 394.74 55.68C393.375 53.0773 391.412 51.0293 388.852 49.536C386.292 48 383.263 47.232 379.764 47.232C376.564 47.232 373.705 48 371.188 49.536C368.713 51.0293 366.772 53.0987 365.364 55.744C363.956 58.3893 363.252 61.312 363.252 64.512C363.252 67.84 364.063 70.72 365.684 73.152C367.348 75.584 369.46 77.44 372.02 78.72C374.623 79.9573 377.311 80.576 380.084 80.576Z" fill="#14213D"/>
<path d="M181.4 110.336C180.717 110.336 180.082 110.165 179.496 109.824C178.909 109.483 178.44 109.019 178.088 108.432C177.746 107.845 177.576 107.205 177.576 106.512C177.576 105.691 177.746 104.971 178.088 104.352C178.44 103.723 178.909 103.243 179.496 102.912C180.082 102.571 180.728 102.4 181.432 102.4C181.933 102.4 182.36 102.459 182.712 102.576C183.074 102.693 183.362 102.837 183.576 103.008C183.8 103.168 184.077 103.397 184.408 103.696C184.429 103.717 184.456 103.728 184.488 103.728C184.53 103.728 184.578 103.712 184.632 103.68C184.696 103.648 184.744 103.616 184.776 103.584L184.984 103.808L183.256 105.408L183.048 105.184C183.101 105.141 183.144 105.083 183.176 105.008C183.218 104.923 183.224 104.859 183.192 104.816C182.808 104.347 182.28 104.112 181.608 104.112C181 104.112 180.488 104.315 180.072 104.72C179.666 105.125 179.464 105.653 179.464 106.304C179.464 106.976 179.661 107.515 180.056 107.92C180.45 108.325 180.968 108.528 181.608 108.528C181.928 108.528 182.189 108.491 182.392 108.416C182.594 108.331 182.824 108.176 183.08 107.952C183.101 107.931 183.112 107.904 183.112 107.872C183.112 107.808 183.074 107.739 183 107.664L183.192 107.424L184.92 108.864L184.728 109.088C184.557 108.992 184.44 108.976 184.376 109.04C183.981 109.477 183.565 109.803 183.128 110.016C182.701 110.229 182.125 110.336 181.4 110.336ZM189.779 110.192C188.989 110.192 188.291 110.027 187.683 109.696C187.085 109.355 186.616 108.891 186.275 108.304C185.944 107.717 185.779 107.056 185.779 106.32C185.779 105.595 185.944 104.933 186.275 104.336C186.616 103.739 187.091 103.269 187.699 102.928C188.307 102.576 189 102.4 189.779 102.4C190.525 102.4 191.203 102.571 191.811 102.912C192.419 103.243 192.899 103.707 193.251 104.304C193.603 104.891 193.779 105.563 193.779 106.32C193.779 106.981 193.619 107.611 193.299 108.208C192.989 108.795 192.531 109.275 191.923 109.648C191.315 110.011 190.6 110.192 189.779 110.192ZM189.779 108.352C190.408 108.352 190.915 108.171 191.299 107.808C191.693 107.435 191.891 106.955 191.891 106.368C191.891 105.76 191.693 105.259 191.299 104.864C190.915 104.469 190.408 104.272 189.779 104.272C189.192 104.272 188.701 104.469 188.307 104.864C187.912 105.248 187.715 105.733 187.715 106.32C187.715 106.939 187.912 107.435 188.307 107.808C188.701 108.171 189.192 108.352 189.779 108.352ZM203.016 109.52C203.016 109.573 203.053 109.616 203.128 109.648C203.213 109.68 203.298 109.696 203.384 109.696V110H200.568V109.696C200.653 109.696 200.733 109.68 200.808 109.648C200.893 109.616 200.936 109.573 200.936 109.52V106.192C200.936 105.648 200.802 105.184 200.536 104.8C200.269 104.405 199.869 104.208 199.336 104.208C198.792 104.208 198.349 104.389 198.008 104.752C197.677 105.115 197.512 105.637 197.512 106.32V109.52C197.512 109.573 197.549 109.616 197.624 109.648C197.709 109.68 197.794 109.696 197.88 109.696V110H195.08V109.696C195.165 109.696 195.245 109.68 195.32 109.648C195.405 109.616 195.448 109.573 195.448 109.52V103.12C195.448 103.067 195.405 103.024 195.32 102.992C195.245 102.96 195.17 102.944 195.096 102.944V102.64H197.512V103.296C197.789 103.04 198.114 102.843 198.488 102.704C198.872 102.555 199.261 102.48 199.656 102.48C200.338 102.48 200.93 102.624 201.432 102.912C201.944 103.2 202.333 103.589 202.6 104.08C202.877 104.56 203.016 105.099 203.016 105.696V109.52ZM207.965 110.24C207.421 110.24 206.893 110.128 206.381 109.904C205.88 109.68 205.373 109.36 204.861 108.944C204.84 108.923 204.813 108.912 204.781 108.912C204.696 108.912 204.605 108.96 204.509 109.056L204.285 108.864L205.885 107.04L206.109 107.248C206.066 107.301 206.029 107.365 205.997 107.44C205.976 107.515 205.986 107.573 206.029 107.616C206.381 107.936 206.706 108.176 207.005 108.336C207.314 108.485 207.634 108.56 207.965 108.56C208.786 108.56 209.197 108.288 209.197 107.744C209.197 107.499 209.069 107.312 208.813 107.184C208.568 107.045 208.152 106.896 207.565 106.736C206.808 106.533 206.258 106.272 205.917 105.952C205.576 105.621 205.405 105.173 205.405 104.608C205.405 103.936 205.624 103.392 206.061 102.976C206.498 102.549 207.096 102.336 207.853 102.336C208.237 102.336 208.584 102.395 208.893 102.512C209.202 102.629 209.576 102.837 210.013 103.136C210.024 103.147 210.045 103.152 210.077 103.152C210.13 103.152 210.184 103.136 210.237 103.104C210.29 103.072 210.328 103.04 210.349 103.008L210.589 103.216L209.149 104.848L208.925 104.656C208.968 104.613 208.994 104.56 209.005 104.496C209.026 104.421 209.016 104.363 208.973 104.32C208.781 104.171 208.594 104.059 208.413 103.984C208.242 103.909 208.05 103.872 207.837 103.872C207.613 103.872 207.437 103.915 207.309 104C207.181 104.085 207.117 104.213 207.117 104.384C207.117 104.523 207.154 104.635 207.229 104.72C207.304 104.805 207.437 104.891 207.629 104.976C207.832 105.061 208.136 105.168 208.541 105.296C209.288 105.52 209.874 105.835 210.301 106.24C210.728 106.635 210.941 107.125 210.941 107.712C210.941 108.576 210.669 109.216 210.125 109.632C209.581 110.037 208.861 110.24 207.965 110.24ZM216.368 102.32V104.752H216.064C216.064 104.677 216.048 104.608 216.016 104.544C215.984 104.469 215.941 104.432 215.888 104.432H214.848V109.52C214.848 109.573 214.885 109.616 214.96 109.648C215.034 109.68 215.109 109.696 215.184 109.696V110H212.576V109.696C212.65 109.696 212.725 109.68 212.8 109.648C212.874 109.616 212.912 109.573 212.912 109.52V104.432H212.144C212.09 104.432 212.048 104.469 212.016 104.544C211.984 104.608 211.968 104.677 211.968 104.752H211.664V102.32H211.968C211.968 102.395 211.984 102.469 212.016 102.544C212.048 102.608 212.09 102.64 212.144 102.64H212.912V100.768C212.912 100.715 212.874 100.672 212.8 100.64C212.725 100.608 212.65 100.592 212.576 100.592V100.288H215.184V100.592C215.109 100.592 215.034 100.608 214.96 100.64C214.885 100.672 214.848 100.715 214.848 100.768V102.64H215.888C215.941 102.64 215.984 102.608 216.016 102.544C216.048 102.469 216.064 102.395 216.064 102.32H216.368ZM222.352 102.16V104.736H222.048C222.048 104.661 222.032 104.576 222 104.48C221.968 104.384 221.925 104.331 221.872 104.32H221.76C221.429 104.32 221.093 104.416 220.752 104.608C220.421 104.789 220.144 105.035 219.92 105.344C219.706 105.643 219.6 105.963 219.6 106.304V109.52C219.6 109.573 219.637 109.616 219.712 109.648C219.797 109.68 219.877 109.696 219.952 109.696V110H217.264V109.696C217.338 109.696 217.413 109.68 217.488 109.648C217.573 109.616 217.616 109.573 217.616 109.52V103.12C217.616 103.067 217.573 103.024 217.488 102.992C217.413 102.96 217.338 102.944 217.264 102.944V102.64H219.6V103.328C219.888 103.061 220.234 102.848 220.64 102.688C221.045 102.528 221.45 102.448 221.856 102.448H221.872H221.888C221.941 102.448 221.978 102.416 222 102.352C222.032 102.288 222.048 102.224 222.048 102.16H222.352ZM230.53 109.52C230.53 109.573 230.567 109.616 230.642 109.648C230.727 109.68 230.807 109.696 230.882 109.696V110H228.898V109.408C228.332 109.899 227.676 110.144 226.93 110.144C225.81 110.144 224.988 109.824 224.466 109.184C223.943 108.533 223.682 107.723 223.682 106.752V103.12C223.682 103.067 223.639 103.024 223.554 102.992C223.479 102.96 223.404 102.944 223.33 102.944V102.64H226.05V102.944C225.975 102.944 225.895 102.96 225.81 102.992C225.735 103.024 225.698 103.067 225.698 103.12V106.624C225.698 107.083 225.815 107.472 226.05 107.792C226.284 108.101 226.647 108.256 227.138 108.256C227.607 108.256 227.959 108.112 228.194 107.824C228.428 107.536 228.546 107.168 228.546 106.72V103.12C228.546 103.067 228.503 103.024 228.418 102.992C228.343 102.96 228.268 102.944 228.194 102.944V102.64H230.882V102.944C230.807 102.944 230.727 102.96 230.642 102.992C230.567 103.024 230.53 103.067 230.53 103.12V109.52ZM236.009 110.336C235.326 110.336 234.692 110.165 234.105 109.824C233.518 109.483 233.049 109.019 232.697 108.432C232.356 107.845 232.185 107.205 232.185 106.512C232.185 105.691 232.356 104.971 232.697 104.352C233.049 103.723 233.518 103.243 234.105 102.912C234.692 102.571 235.337 102.4 236.041 102.4C236.542 102.4 236.969 102.459 237.321 102.576C237.684 102.693 237.972 102.837 238.185 103.008C238.409 103.168 238.686 103.397 239.017 103.696C239.038 103.717 239.065 103.728 239.097 103.728C239.14 103.728 239.188 103.712 239.241 103.68C239.305 103.648 239.353 103.616 239.385 103.584L239.593 103.808L237.865 105.408L237.657 105.184C237.71 105.141 237.753 105.083 237.785 105.008C237.828 104.923 237.833 104.859 237.801 104.816C237.417 104.347 236.889 104.112 236.217 104.112C235.609 104.112 235.097 104.315 234.681 104.72C234.276 105.125 234.073 105.653 234.073 106.304C234.073 106.976 234.27 107.515 234.665 107.92C235.06 108.325 235.577 108.528 236.217 108.528C236.537 108.528 236.798 108.491 237.001 108.416C237.204 108.331 237.433 108.176 237.689 107.952C237.71 107.931 237.721 107.904 237.721 107.872C237.721 107.808 237.684 107.739 237.609 107.664L237.801 107.424L239.529 108.864L239.337 109.088C239.166 108.992 239.049 108.976 238.985 109.04C238.59 109.477 238.174 109.803 237.737 110.016C237.31 110.229 236.734 110.336 236.009 110.336ZM244.852 102.32V104.752H244.548C244.548 104.677 244.532 104.608 244.5 104.544C244.468 104.469 244.425 104.432 244.372 104.432H243.332V109.52C243.332 109.573 243.369 109.616 243.444 109.648C243.519 109.68 243.593 109.696 243.668 109.696V110H241.06V109.696C241.135 109.696 241.209 109.68 241.284 109.648C241.359 109.616 241.396 109.573 241.396 109.52V104.432H240.628C240.575 104.432 240.532 104.469 240.5 104.544C240.468 104.608 240.452 104.677 240.452 104.752H240.148V102.32H240.452C240.452 102.395 240.468 102.469 240.5 102.544C240.532 102.608 240.575 102.64 240.628 102.64H241.396V100.768C241.396 100.715 241.359 100.672 241.284 100.64C241.209 100.608 241.135 100.592 241.06 100.592V100.288H243.668V100.592C243.593 100.592 243.519 100.608 243.444 100.64C243.369 100.672 243.332 100.715 243.332 100.768V102.64H244.372C244.425 102.64 244.468 102.608 244.5 102.544C244.532 102.469 244.548 102.395 244.548 102.32H244.852ZM249.732 110.192C248.943 110.192 248.244 110.027 247.636 109.696C247.039 109.355 246.569 108.891 246.228 108.304C245.897 107.717 245.732 107.056 245.732 106.32C245.732 105.595 245.897 104.933 246.228 104.336C246.569 103.739 247.044 103.269 247.652 102.928C248.26 102.576 248.953 102.4 249.732 102.4C250.479 102.4 251.156 102.571 251.764 102.912C252.372 103.243 252.852 103.707 253.204 104.304C253.556 104.891 253.732 105.563 253.732 106.32C253.732 106.981 253.572 107.611 253.252 108.208C252.943 108.795 252.484 109.275 251.876 109.648C251.268 110.011 250.553 110.192 249.732 110.192ZM249.732 108.352C250.361 108.352 250.868 108.171 251.252 107.808C251.647 107.435 251.844 106.955 251.844 106.368C251.844 105.76 251.647 105.259 251.252 104.864C250.868 104.469 250.361 104.272 249.732 104.272C249.145 104.272 248.655 104.469 248.26 104.864C247.865 105.248 247.668 105.733 247.668 106.32C247.668 106.939 247.865 107.435 248.26 107.808C248.655 108.171 249.145 108.352 249.732 108.352ZM259.961 102.16V104.736H259.657C259.657 104.661 259.641 104.576 259.609 104.48C259.577 104.384 259.534 104.331 259.481 104.32H259.369C259.038 104.32 258.702 104.416 258.361 104.608C258.03 104.789 257.753 105.035 257.529 105.344C257.316 105.643 257.209 105.963 257.209 106.304V109.52C257.209 109.573 257.246 109.616 257.321 109.648C257.406 109.68 257.486 109.696 257.561 109.696V110H254.873V109.696C254.948 109.696 255.022 109.68 255.097 109.648C255.182 109.616 255.225 109.573 255.225 109.52V103.12C255.225 103.067 255.182 103.024 255.097 102.992C255.022 102.96 254.948 102.944 254.873 102.944V102.64H257.209V103.328C257.497 103.061 257.844 102.848 258.249 102.688C258.654 102.528 259.06 102.448 259.465 102.448H259.481H259.497C259.55 102.448 259.588 102.416 259.609 102.352C259.641 102.288 259.657 102.224 259.657 102.16H259.961ZM269.595 102.944C269.52 102.944 269.44 102.96 269.355 102.992C269.28 103.024 269.243 103.067 269.243 103.12V109.52C269.243 109.573 269.28 109.616 269.355 109.648C269.44 109.68 269.52 109.696 269.595 109.696V110H267.227V109.12C266.555 109.845 265.707 110.208 264.683 110.208C263.904 110.208 263.216 110.053 262.619 109.744C262.032 109.424 261.574 108.971 261.243 108.384C260.923 107.797 260.763 107.115 260.763 106.336C260.763 105.579 260.939 104.907 261.291 104.32C261.654 103.723 262.134 103.264 262.731 102.944C263.328 102.613 263.979 102.448 264.683 102.448C265.707 102.448 266.555 102.843 267.227 103.632V102.64H269.595V102.944ZM264.923 108.512C265.36 108.512 265.75 108.416 266.091 108.224C266.443 108.021 266.715 107.76 266.907 107.44C267.099 107.109 267.195 106.757 267.195 106.384C267.195 105.744 266.982 105.216 266.555 104.8C266.139 104.384 265.595 104.176 264.923 104.176C264.272 104.176 263.734 104.379 263.307 104.784C262.891 105.189 262.683 105.707 262.683 106.336C262.683 106.997 262.896 107.525 263.323 107.92C263.76 108.315 264.294 108.512 264.923 108.512ZM279.277 102.304C280.098 102.304 280.807 102.485 281.405 102.848C282.002 103.2 282.455 103.68 282.765 104.288C283.074 104.896 283.229 105.568 283.229 106.304C283.229 106.528 283.213 106.752 283.181 106.976H277.325C277.367 107.488 277.591 107.888 277.997 108.176C278.402 108.464 278.887 108.608 279.453 108.608C279.837 108.608 280.157 108.555 280.413 108.448C280.679 108.341 280.914 108.181 281.117 107.968C281.138 107.925 281.149 107.899 281.149 107.888C281.149 107.845 281.133 107.803 281.101 107.76C281.069 107.707 281.037 107.669 281.005 107.648L281.197 107.408L282.973 108.8L282.797 109.04C282.637 108.944 282.525 108.933 282.461 109.008C281.714 109.904 280.711 110.352 279.453 110.352C278.642 110.352 277.927 110.176 277.309 109.824C276.69 109.461 276.21 108.981 275.868 108.384C275.538 107.776 275.373 107.104 275.373 106.368C275.373 105.589 275.538 104.891 275.868 104.272C276.199 103.653 276.658 103.173 277.245 102.832C277.842 102.48 278.519 102.304 279.277 102.304ZM281.309 105.488C281.266 105.051 281.042 104.683 280.637 104.384C280.242 104.075 279.794 103.92 279.293 103.92C278.791 103.92 278.359 104.075 277.997 104.384C277.634 104.683 277.415 105.051 277.341 105.488H281.309ZM290.539 101.296C290.198 101.296 289.905 101.179 289.66 100.944C289.425 100.709 289.308 100.416 289.308 100.064C289.308 99.7333 289.425 99.4507 289.66 99.216C289.905 98.9707 290.198 98.848 290.539 98.848C290.881 98.848 291.169 98.9707 291.404 99.216C291.638 99.4507 291.756 99.7333 291.756 100.064C291.756 100.416 291.638 100.709 291.404 100.944C291.169 101.179 290.881 101.296 290.539 101.296ZM289.5 103.12C289.5 103.067 289.457 103.024 289.372 102.992C289.297 102.96 289.222 102.944 289.148 102.944V102.64H291.9V102.944C291.825 102.944 291.745 102.96 291.66 102.992C291.585 103.024 291.548 103.067 291.548 103.12V109.52C291.548 109.573 291.585 109.616 291.66 109.648C291.745 109.68 291.825 109.696 291.9 109.696V110H289.148V109.696C289.222 109.696 289.297 109.68 289.372 109.648C289.457 109.616 289.5 109.573 289.5 109.52V103.12ZM301.531 109.52C301.531 109.573 301.569 109.616 301.643 109.648C301.729 109.68 301.814 109.696 301.899 109.696V110H299.083V109.696C299.169 109.696 299.249 109.68 299.323 109.648C299.409 109.616 299.451 109.573 299.451 109.52V106.192C299.451 105.648 299.318 105.184 299.051 104.8C298.785 104.405 298.385 104.208 297.851 104.208C297.307 104.208 296.865 104.389 296.523 104.752C296.193 105.115 296.027 105.637 296.027 106.32V109.52C296.027 109.573 296.065 109.616 296.139 109.648C296.225 109.68 296.31 109.696 296.395 109.696V110H293.595V109.696C293.681 109.696 293.761 109.68 293.835 109.648C293.921 109.616 293.963 109.573 293.963 109.52V103.12C293.963 103.067 293.921 103.024 293.835 102.992C293.761 102.96 293.686 102.944 293.611 102.944V102.64H296.027V103.296C296.305 103.04 296.63 102.843 297.003 102.704C297.387 102.555 297.777 102.48 298.171 102.48C298.854 102.48 299.446 102.624 299.947 102.912C300.459 103.2 300.849 103.589 301.115 104.08C301.393 104.56 301.531 105.099 301.531 105.696V109.52ZM315.265 109.52C315.265 109.573 315.302 109.616 315.377 109.648C315.462 109.68 315.547 109.696 315.633 109.696V110H312.817V109.696C312.902 109.696 312.982 109.68 313.057 109.648C313.142 109.616 313.185 109.573 313.185 109.52V106.192C313.185 104.869 312.747 104.208 311.873 104.208C311.446 104.208 311.115 104.384 310.881 104.736C310.646 105.088 310.529 105.616 310.529 106.32V109.52C310.529 109.573 310.566 109.616 310.641 109.648C310.726 109.68 310.811 109.696 310.897 109.696V110H308.097V109.696C308.182 109.696 308.262 109.68 308.337 109.648C308.422 109.616 308.465 109.573 308.465 109.52V106.192C308.465 105.605 308.374 105.131 308.193 104.768C308.011 104.395 307.675 104.208 307.185 104.208C306.801 104.208 306.491 104.352 306.257 104.64C306.033 104.917 305.899 105.339 305.857 105.904V109.52C305.857 109.573 305.899 109.616 305.985 109.648C306.07 109.68 306.15 109.696 306.225 109.696V110H303.377V109.696C303.451 109.696 303.531 109.68 303.617 109.648C303.702 109.616 303.745 109.573 303.745 109.52V103.12C303.745 103.067 303.702 103.024 303.617 102.992C303.542 102.96 303.467 102.944 303.393 102.944V102.64H305.857V103.072C306.283 102.677 306.827 102.48 307.489 102.48C308.086 102.48 308.598 102.597 309.025 102.832C309.462 103.056 309.803 103.371 310.049 103.776C310.241 103.381 310.534 103.067 310.929 102.832C311.334 102.597 311.787 102.48 312.289 102.48C313.291 102.48 314.038 102.779 314.529 103.376C315.019 103.973 315.265 104.747 315.265 105.696V109.52ZM320.935 110.192C320.146 110.192 319.447 110.027 318.839 109.696C318.242 109.355 317.772 108.891 317.431 108.304C317.1 107.717 316.935 107.056 316.935 106.32C316.935 105.595 317.1 104.933 317.431 104.336C317.772 103.739 318.247 103.269 318.855 102.928C319.463 102.576 320.156 102.4 320.935 102.4C321.682 102.4 322.359 102.571 322.967 102.912C323.575 103.243 324.055 103.707 324.407 104.304C324.759 104.891 324.935 105.563 324.935 106.32C324.935 106.981 324.775 107.611 324.455 108.208C324.146 108.795 323.687 109.275 323.079 109.648C322.471 110.011 321.756 110.192 320.935 110.192ZM320.935 108.352C321.564 108.352 322.071 108.171 322.455 107.808C322.85 107.435 323.047 106.955 323.047 106.368C323.047 105.76 322.85 105.259 322.455 104.864C322.071 104.469 321.564 104.272 320.935 104.272C320.348 104.272 319.858 104.469 319.463 104.864C319.068 105.248 318.871 105.733 318.871 106.32C318.871 106.939 319.068 107.435 319.463 107.808C319.858 108.171 320.348 108.352 320.935 108.352ZM330.908 102.448C331.665 102.448 332.353 102.613 332.972 102.944C333.591 103.264 334.076 103.717 334.428 104.304C334.791 104.891 334.972 105.568 334.972 106.336C334.972 107.115 334.796 107.797 334.444 108.384C334.092 108.96 333.607 109.408 332.988 109.728C332.38 110.048 331.687 110.208 330.908 110.208C330.012 110.208 329.233 109.941 328.572 109.408V110H326.236V109.696C326.311 109.696 326.385 109.68 326.46 109.648C326.545 109.616 326.588 109.573 326.588 109.52V98.48C326.588 98.4267 326.545 98.384 326.46 98.352C326.385 98.32 326.311 98.304 326.236 98.304V98H328.924V98.304C328.849 98.304 328.769 98.32 328.684 98.352C328.609 98.384 328.572 98.4267 328.572 98.48V103.2C329.212 102.699 329.991 102.448 330.908 102.448ZM330.78 108.512C331.42 108.512 331.953 108.315 332.38 107.92C332.817 107.525 333.036 106.997 333.036 106.336C333.036 105.717 332.823 105.205 332.396 104.8C331.969 104.384 331.431 104.176 330.78 104.176C330.119 104.176 329.575 104.384 329.148 104.8C328.721 105.216 328.508 105.744 328.508 106.384C328.508 106.757 328.604 107.109 328.796 107.44C328.999 107.76 329.276 108.021 329.628 108.224C329.98 108.416 330.364 108.512 330.78 108.512ZM337.883 101.296C337.542 101.296 337.249 101.179 337.003 100.944C336.769 100.709 336.651 100.416 336.651 100.064C336.651 99.7333 336.769 99.4507 337.003 99.216C337.249 98.9707 337.542 98.848 337.883 98.848C338.225 98.848 338.513 98.9707 338.747 99.216C338.982 99.4507 339.099 99.7333 339.099 100.064C339.099 100.416 338.982 100.709 338.747 100.944C338.513 101.179 338.225 101.296 337.883 101.296ZM336.843 103.12C336.843 103.067 336.801 103.024 336.715 102.992C336.641 102.96 336.566 102.944 336.491 102.944V102.64H339.243V102.944C339.169 102.944 339.089 102.96 339.003 102.992C338.929 103.024 338.891 103.067 338.891 103.12V109.52C338.891 109.573 338.929 109.616 339.003 109.648C339.089 109.68 339.169 109.696 339.243 109.696V110H336.491V109.696C336.566 109.696 336.641 109.68 336.715 109.648C336.801 109.616 336.843 109.573 336.843 109.52V103.12ZM341.307 98.48C341.307 98.4267 341.264 98.384 341.179 98.352C341.104 98.32 341.024 98.304 340.939 98.304V98H343.755V98.304C343.67 98.304 343.584 98.32 343.499 98.352C343.424 98.384 343.387 98.4267 343.387 98.48V109.52C343.387 109.573 343.424 109.616 343.499 109.648C343.584 109.68 343.67 109.696 343.755 109.696V110H340.939V109.696C341.024 109.696 341.104 109.68 341.179 109.648C341.264 109.616 341.307 109.573 341.307 109.52V98.48ZM346.836 101.296C346.495 101.296 346.202 101.179 345.956 100.944C345.722 100.709 345.604 100.416 345.604 100.064C345.604 99.7333 345.722 99.4507 345.956 99.216C346.202 98.9707 346.495 98.848 346.836 98.848C347.178 98.848 347.466 98.9707 347.7 99.216C347.935 99.4507 348.052 99.7333 348.052 100.064C348.052 100.416 347.935 100.709 347.7 100.944C347.466 101.179 347.178 101.296 346.836 101.296ZM345.796 103.12C345.796 103.067 345.754 103.024 345.668 102.992C345.594 102.96 345.519 102.944 345.444 102.944V102.64H348.196V102.944C348.122 102.944 348.042 102.96 347.956 102.992C347.882 103.024 347.844 103.067 347.844 103.12V109.52C347.844 109.573 347.882 109.616 347.956 109.648C348.042 109.68 348.122 109.696 348.196 109.696V110H345.444V109.696C345.519 109.696 345.594 109.68 345.668 109.648C345.754 109.616 345.796 109.573 345.796 109.52V103.12ZM358.548 102.944C358.474 102.944 358.394 102.96 358.308 102.992C358.234 103.024 358.196 103.067 358.196 103.12V109.52C358.196 109.573 358.234 109.616 358.308 109.648C358.394 109.68 358.474 109.696 358.548 109.696V110H356.18V109.12C355.508 109.845 354.66 110.208 353.636 110.208C352.858 110.208 352.17 110.053 351.572 109.744C350.986 109.424 350.527 108.971 350.196 108.384C349.876 107.797 349.716 107.115 349.716 106.336C349.716 105.579 349.892 104.907 350.244 104.32C350.607 103.723 351.087 103.264 351.684 102.944C352.282 102.613 352.932 102.448 353.636 102.448C354.66 102.448 355.508 102.843 356.18 103.632V102.64H358.548V102.944ZM353.876 108.512C354.314 108.512 354.703 108.416 355.044 108.224C355.396 108.021 355.668 107.76 355.86 107.44C356.052 107.109 356.148 106.757 356.148 106.384C356.148 105.744 355.935 105.216 355.508 104.8C355.092 104.384 354.548 104.176 353.876 104.176C353.226 104.176 352.687 104.379 352.26 104.784C351.844 105.189 351.636 105.707 351.636 106.336C351.636 106.997 351.85 107.525 352.276 107.92C352.714 108.315 353.247 108.512 353.876 108.512ZM364.945 102.16V104.736H364.641C364.641 104.661 364.625 104.576 364.593 104.48C364.561 104.384 364.519 104.331 364.465 104.32H364.353C364.023 104.32 363.687 104.416 363.345 104.608C363.015 104.789 362.737 105.035 362.513 105.344C362.3 105.643 362.193 105.963 362.193 106.304V109.52C362.193 109.573 362.231 109.616 362.305 109.648C362.391 109.68 362.471 109.696 362.545 109.696V110H359.857V109.696C359.932 109.696 360.007 109.68 360.081 109.648C360.167 109.616 360.209 109.573 360.209 109.52V103.12C360.209 103.067 360.167 103.024 360.081 102.992C360.007 102.96 359.932 102.944 359.857 102.944V102.64H362.193V103.328C362.481 103.061 362.828 102.848 363.233 102.688C363.639 102.528 364.044 102.448 364.449 102.448H364.465H364.481C364.535 102.448 364.572 102.416 364.593 102.352C364.625 102.288 364.641 102.224 364.641 102.16H364.945ZM367.539 101.296C367.198 101.296 366.905 101.179 366.66 100.944C366.425 100.709 366.308 100.416 366.308 100.064C366.308 99.7333 366.425 99.4507 366.66 99.216C366.905 98.9707 367.198 98.848 367.539 98.848C367.881 98.848 368.169 98.9707 368.404 99.216C368.638 99.4507 368.756 99.7333 368.756 100.064C368.756 100.416 368.638 100.709 368.404 100.944C368.169 101.179 367.881 101.296 367.539 101.296ZM366.5 103.12C366.5 103.067 366.457 103.024 366.372 102.992C366.297 102.96 366.222 102.944 366.148 102.944V102.64H368.9V102.944C368.825 102.944 368.745 102.96 368.66 102.992C368.585 103.024 368.548 103.067 368.548 103.12V109.52C368.548 109.573 368.585 109.616 368.66 109.648C368.745 109.68 368.825 109.696 368.9 109.696V110H366.148V109.696C366.222 109.696 366.297 109.68 366.372 109.648C366.457 109.616 366.5 109.573 366.5 109.52V103.12ZM379.251 102.944C379.177 102.944 379.097 102.96 379.011 102.992C378.937 103.024 378.899 103.067 378.899 103.12V109.52C378.899 109.573 378.937 109.616 379.011 109.648C379.097 109.68 379.177 109.696 379.251 109.696V110H376.883V109.12C376.211 109.845 375.363 110.208 374.339 110.208C373.561 110.208 372.873 110.053 372.275 109.744C371.689 109.424 371.23 108.971 370.899 108.384C370.579 107.797 370.419 107.115 370.419 106.336C370.419 105.579 370.595 104.907 370.947 104.32C371.31 103.723 371.79 103.264 372.387 102.944C372.985 102.613 373.635 102.448 374.339 102.448C375.363 102.448 376.211 102.843 376.883 103.632V102.64H379.251V102.944ZM374.579 108.512C375.017 108.512 375.406 108.416 375.747 108.224C376.099 108.021 376.371 107.76 376.563 107.44C376.755 107.109 376.851 106.757 376.851 106.384C376.851 105.744 376.638 105.216 376.211 104.8C375.795 104.384 375.251 104.176 374.579 104.176C373.929 104.176 373.39 104.379 372.963 104.784C372.547 105.189 372.339 105.707 372.339 106.336C372.339 106.997 372.553 107.525 372.979 107.92C373.417 108.315 373.95 108.512 374.579 108.512Z" fill="#A1A1A1"/>
</g>
<defs>
<clipPath id="clip0_253_2">
<rect width="412" height="124" fill="white"/>
</clipPath>
</defs>
</svg>
